<svg width="300" height="400" viewBox="0 0 300 400" xmlns="http://www.w3.org/2000/svg">
  <!-- Background -->
  <rect width="300" height="400" fill="#ffffff" stroke="#d1d5db" stroke-width="1"/>
  <!-- Header with photo -->
  <rect x="200" y="20" width="80" height="80" fill="#f3f4f6" stroke="#9ca3af" stroke-width="1"/>
  <circle cx="220" cy="50" r="8" fill="#9ca3af"/>
  <rect x="20" y="30" width="100" height="8" fill="#111827" rx="2"/>
  <rect x="20" y="45" width="140" height="6" fill="#6b7280" rx="2"/>
  <rect x="20" y="55" width="80" height="5" fill="#6b7280" rx="2"/>
  <!-- Contact -->
  <rect x="20" y="120" width="15" height="4" fill="#6b7280" rx="1"/>
  <rect x="40" y="120" width="60" height="4" fill="#6b7280" rx="1"/>
  <rect x="20" y="130" width="15" height="4" fill="#6b7280" rx="1"/>
  <rect x="40" y="130" width="70" height="4" fill="#6b7280" rx="1"/>
  <!-- Summary -->
  <rect x="20" y="155" width="60" height="6" fill="#111827" rx="1"/>
  <line x1="20" y1="167" x2="280" y2="167" stroke="#d1d5db" stroke-width="1"/>
  <rect x="20" y="175" width="260" height="3" fill="#374151" rx="1"/>
  <rect x="20" y="182" width="240" height="3" fill="#374151" rx="1"/>
  <rect x="20" y="189" width="220" height="3" fill="#374151" rx="1"/>
  <!-- Experience -->
  <rect x="20" y="210" width="80" height="6" fill="#111827" rx="1"/>
  <line x1="20" y1="222" x2="280" y2="222" stroke="#d1d5db" stroke-width="1"/>
  <rect x="30" y="230" width="80" height="5" fill="#374151" rx="1"/>
  <rect x="30" y="238" width="60" height="4" fill="#6b7280" rx="1"/>
  <rect x="30" y="245" width="180" height="3" fill="#6b7280" rx="1"/>
  <!-- Education -->
  <rect x="20" y="270" width="60" height="6" fill="#111827" rx="1"/>
  <line x1="20" y1="282" x2="280" y2="282" stroke="#d1d5db" stroke-width="1"/>
  <rect x="30" y="290" width="70" height="5" fill="#374151" rx="1"/>
  <rect x="30" y="298" width="55" height="4" fill="#6b7280" rx="1"/>
  <!-- Skills -->
  <rect x="20" y="320" width="50" height="6" fill="#111827" rx="1"/>
  <line x1="20" y1="332" x2="280" y2="332" stroke="#d1d5db" stroke-width="1"/>
  <rect x="20" y="340" width="35" height="18" fill="none" stroke="#d1d5db" stroke-width="1" rx="2"/>
  <rect x="65" y="340" width="45" height="18" fill="none" stroke="#d1d5db" stroke-width="1" rx="2"/>
  <rect x="120" y="340" width="40" height="18" fill="none" stroke="#d1d5db" stroke-width="1" rx="2"/>
</svg>
