<svg width="300" height="400" viewBox="0 0 300 400" xmlns="http://www.w3.org/2000/svg">
  <defs>
    <radialGradient id="creativeBg" cx="50%" cy="50%" r="50%">
      <stop offset="0%" style="stop-color:#fef3c7;stop-opacity:1" />
      <stop offset="100%" style="stop-color:#ffffff;stop-opacity:1" />
    </radialGradient>
    <linearGradient id="creativeAccent" x1="0%" y1="0%" x2="100%" y2="0%">
      <stop offset="0%" style="stop-color:#8b5cf6;stop-opacity:1" />
      <stop offset="50%" style="stop-color:#ec4899;stop-opacity:1" />
      <stop offset="100%" style="stop-color:#06b6d4;stop-opacity:1" />
    </linearGradient>
  </defs>
  <!-- Background -->
  <rect width="300" height="400" fill="url(#creativeBg)"/>
  <!-- Decorative elements -->
  <circle cx="50" cy="50" r="20" fill="#8b5cf6" opacity="0.2"/>
  <circle cx="250" cy="350" r="15" fill="#ec4899" opacity="0.2"/>
  <!-- Header -->
  <rect x="20" y="20" width="260" height="70" fill="url(#creativeAccent)" rx="20"/>
  <circle cx="60" cy="55" r="18" fill="#ffffff" opacity="0.9"/>
  <rect x="90" y="40" width="90" height="7" fill="#ffffff" rx="3"/>
  <rect x="90" y="52" width="130" height="5" fill="#ffffff" opacity="0.8" rx="2"/>
  <!-- Contact bubbles -->
  <circle cx="40" cy="110" r="12" fill="#dbeafe"/>
  <circle cx="70" cy="110" r="12" fill="#fef3c7"/>
  <circle cx="100" cy="110" r="12" fill="#fce7f3"/>
  <circle cx="130" cy="110" r="12" fill="#ecfdf5"/>
  <!-- Summary -->
  <rect x="20" y="135" width="80" height="7" fill="url(#creativeAccent)" rx="3"/>
  <rect x="20" y="150" width="260" height="25" fill="#ffffff" rx="12" stroke="#e5e7eb" stroke-width="1"/>
  <rect x="30" y="158" width="200" height="3" fill="#6b7280" rx="1"/>
  <rect x="30" y="165" width="180" height="3" fill="#6b7280" rx="1"/>
  <!-- Experience -->
  <rect x="20" y="190" width="90" height="7" fill="url(#creativeAccent)" rx="3"/>
  <rect x="20" y="205" width="260" height="40" fill="#ffffff" rx="15" stroke="#e5e7eb" stroke-width="1"/>
  <circle cx="35" cy="220" r="6" fill="#8b5cf6"/>
  <rect x="50" y="212" width="80" height="5" fill="#374151" rx="2"/>
  <rect x="50" y="220" width="60" height="4" fill="#6b7280" rx="2"/>
  <rect x="50" y="228" width="160" height="3" fill="#6b7280" rx="1"/>
  <!-- Education -->
  <rect x="20" y="260" width="70" height="7" fill="url(#creativeAccent)" rx="3"/>
  <rect x="20" y="275" width="260" height="35" fill="#ffffff" rx="12" stroke="#e5e7eb" stroke-width="1"/>
  <rect x="30" y="285" width="70" height="5" fill="#374151" rx="2"/>
  <rect x="30" y="293" width="55" height="4" fill="#6b7280" rx="2"/>
  <!-- Skills -->
  <rect x="20" y="320" width="60" height="7" fill="url(#creativeAccent)" rx="3"/>
  <circle cx="35" cy="345" r="18" fill="#8b5cf6"/>
  <circle cx="75" cy="345" r="18" fill="#ec4899"/>
  <circle cx="115" cy="345" r="18" fill="#06b6d4"/>
  <circle cx="155" cy="345" r="18" fill="#10b981"/>
</svg>
