<svg width="300" height="400" viewBox="0 0 300 400" xmlns="http://www.w3.org/2000/svg">
  <!-- Background -->
  <rect width="300" height="400" fill="#ffffff"/>
  <!-- Header -->
  <rect x="20" y="30" width="120" height="8" fill="#111827" rx="1"/>
  <rect x="20" y="45" width="180" height="6" fill="#6b7280" rx="1"/>
  <!-- Contact -->
  <rect x="20" y="75" width="15" height="3" fill="#6b7280" rx="1"/>
  <rect x="40" y="75" width="60" height="3" fill="#6b7280" rx="1"/>
  <rect x="20" y="82" width="15" height="3" fill="#6b7280" rx="1"/>
  <rect x="40" y="82" width="70" height="3" fill="#6b7280" rx="1"/>
  <!-- Summary -->
  <rect x="20" y="105" width="60" height="5" fill="#111827" rx="1"/>
  <line x1="20" y1="115" x2="280" y2="115" stroke="#e5e7eb" stroke-width="1"/>
  <rect x="20" y="122" width="260" height="2" fill="#6b7280" rx="1"/>
  <rect x="20" y="127" width="240" height="2" fill="#6b7280" rx="1"/>
  <rect x="20" y="132" width="220" height="2" fill="#6b7280" rx="1"/>
  <!-- Experience -->
  <rect x="20" y="150" width="80" height="5" fill="#111827" rx="1"/>
  <line x1="20" y1="160" x2="280" y2="160" stroke="#e5e7eb" stroke-width="1"/>
  <rect x="20" y="167" width="100" height="4" fill="#374151" rx="1"/>
  <rect x="20" y="173" width="80" height="3" fill="#6b7280" rx="1"/>
  <rect x="20" y="178" width="200" height="2" fill="#6b7280" rx="1"/>
  <!-- Education -->
  <rect x="20" y="200" width="60" height="5" fill="#111827" rx="1"/>
  <line x1="20" y1="210" x2="280" y2="210" stroke="#e5e7eb" stroke-width="1"/>
  <rect x="20" y="217" width="90" height="4" fill="#374151" rx="1"/>
  <rect x="20" y="223" width="75" height="3" fill="#6b7280" rx="1"/>
  <!-- Skills -->
  <rect x="20" y="240" width="50" height="5" fill="#111827" rx="1"/>
  <line x1="20" y1="250" x2="280" y2="250" stroke="#e5e7eb" stroke-width="1"/>
  <rect x="20" y="257" width="35" height="2" fill="#6b7280" rx="1"/>
  <rect x="65" y="257" width="45" height="2" fill="#6b7280" rx="1"/>
  <rect x="120" y="257" width="40" height="2" fill="#6b7280" rx="1"/>
  <rect x="170" y="257" width="55" height="2" fill="#6b7280" rx="1"/>
  <!-- Languages -->
  <rect x="20" y="275" width="60" height="5" fill="#111827" rx="1"/>
  <line x1="20" y1="285" x2="280" y2="285" stroke="#e5e7eb" stroke-width="1"/>
  <rect x="20" y="292" width="30" height="3" fill="#6b7280" rx="1"/>
  <rect x="60" y="292" width="25" height="3" fill="#6b7280" rx="1"/>
  <rect x="20" y="298" width="25" height="3" fill="#6b7280" rx="1"/>
  <rect x="55" y="298" width="30" height="3" fill="#6b7280" rx="1"/>
</svg>
