<svg width="300" height="400" viewBox="0 0 300 400" xmlns="http://www.w3.org/2000/svg">
  <defs>
    <linearGradient id="modernGradient" x1="0%" y1="0%" x2="100%" y2="100%">
      <stop offset="0%" style="stop-color:#2563eb;stop-opacity:1" />
      <stop offset="100%" style="stop-color:#3b82f6;stop-opacity:1" />
    </linearGradient>
  </defs>
  <!-- Background -->
  <rect width="300" height="400" fill="#ffffff" stroke="#e5e7eb" stroke-width="1"/>
  <!-- Header -->
  <rect x="20" y="20" width="260" height="60" fill="url(#modernGradient)" rx="8"/>
  <circle cx="60" cy="50" r="15" fill="#ffffff" opacity="0.8"/>
  <rect x="85" y="35" width="80" height="6" fill="#ffffff" rx="3"/>
  <rect x="85" y="45" width="120" height="4" fill="#ffffff" opacity="0.7" rx="2"/>
  <!-- Contact info -->
  <rect x="20" y="95" width="20" height="4" fill="#6b7280" rx="2"/>
  <rect x="50" y="95" width="60" height="4" fill="#6b7280" rx="2"/>
  <rect x="130" y="95" width="20" height="4" fill="#6b7280" rx="2"/>
  <rect x="160" y="95" width="80" height="4" fill="#6b7280" rx="2"/>
  <!-- Summary -->
  <rect x="20" y="130" width="80" height="6" fill="#2563eb" rx="3"/>
  <rect x="20" y="145" width="260" height="3" fill="#e5e7eb" rx="1"/>
  <rect x="20" y="155" width="240" height="4" fill="#374151" rx="2"/>
  <rect x="20" y="165" width="220" height="4" fill="#374151" rx="2"/>
  <!-- Experience -->
  <rect x="20" y="190" width="90" height="6" fill="#2563eb" rx="3"/>
  <rect x="20" y="205" width="260" height="3" fill="#e5e7eb" rx="1"/>
  <rect x="20" y="215" width="100" height="5" fill="#374151" rx="2"/>
  <rect x="20" y="225" width="80" height="4" fill="#6b7280" rx="2"/>
  <rect x="20" y="235" width="200" height="3" fill="#6b7280" rx="1"/>
  <!-- Education -->
  <rect x="20" y="260" width="70" height="6" fill="#2563eb" rx="3"/>
  <rect x="20" y="275" width="260" height="3" fill="#e5e7eb" rx="1"/>
  <rect x="20" y="285" width="90" height="5" fill="#374151" rx="2"/>
  <rect x="20" y="295" width="75" height="4" fill="#6b7280" rx="2"/>
  <!-- Skills -->
  <rect x="20" y="320" width="60" height="6" fill="#2563eb" rx="3"/>
  <rect x="20" y="335" width="260" height="3" fill="#e5e7eb" rx="1"/>
  <rect x="20" y="345" width="40" height="20" fill="#dbeafe" rx="10"/>
  <rect x="70" y="345" width="50" height="20" fill="#dbeafe" rx="10"/>
  <rect x="130" y="345" width="45" height="20" fill="#dbeafe" rx="10"/>
  <rect x="185" y="345" width="55" height="20" fill="#dbeafe" rx="10"/>
</svg>
